<svg width="45" height="45" viewBox="0 0 45 45" fill="none" xmlns="http://www.w3.org/2000/svg">
<path fill-rule="evenodd" clip-rule="evenodd" d="M22.5 45C34.9265 45 45 34.9262 45 22.4996C45 10.0732 34.9267 0 22.5 0C10.0733 0 0 10.0732 0 22.4996C0 34.9262 10.0735 45 22.5 45ZM22.5 1.95652C33.8461 1.95652 43.0435 11.1537 43.0435 22.4996C43.0435 33.8457 33.846 43.0435 22.5 43.0435C11.154 43.0435 1.95652 33.8457 1.95652 22.4996C1.95652 11.1537 11.1539 1.95652 22.5 1.95652ZM17 29.5L31 22.5L17 15.5V29.5Z" fill="white"/>
</svg>
