<?xml version="1.0" encoding="UTF-8"?>
<svg width="59px" height="59px" viewBox="0 0 59 59" version="1.1" xmlns="http://www.w3.org/2000/svg" xmlns:xlink="http://www.w3.org/1999/xlink">
    <!-- Generator: Sketch 60 (88103) - https://sketch.com -->
    <title>Icon</title>
    <desc>Created with Sketch.</desc>
    <defs>
        <rect id="path-1" x="5.42528737e-05" y="0" width="80" height="70"></rect>
    </defs>
    <g id="Page-1" stroke="none" stroke-width="1" fill="none" fill-rule="evenodd">
        <g id="Desktop/4---Product" transform="translate(-312.000000, -5906.000000)">
            <g id="Module-6-Returns" transform="translate(0.000000, 5740.000000)">
                <g id="Callout-1" transform="translate(197.000000, 160.000000)">
                    <g id="Icon" transform="translate(104.000000, 0.000000)">
                        <mask id="mask-2" fill="white">
                            <use xlink:href="#path-1"></use>
                        </mask>
                        <g id="Mask"></g>
                        <path d="M40.5,6 C48.3133835,6 55.6619208,9.01844286 61.217383,14.5016167 L61.217383,14.5016167 L61.217383,8.77005385 L63.5273465,8.77005385 L63.5273465,18.6250374 L53.6724988,18.6250374 L53.6724988,16.315074 L59.7664542,16.315074 L59.7664542,16.315074 L59.7262336,16.2737664 C54.5907772,11.1383099 47.762661,8.30996347 40.5,8.30996347 C33.237339,8.30996347 26.4093587,11.1383099 21.2737664,16.2737664 C16.1383099,21.4092228 13.3099635,28.237339 13.3099635,35.5 C13.3099635,42.7627969 16.1383099,49.5907772 21.2737664,54.7260978 C26.4093587,59.8616901 33.237339,62.6900365 40.5,62.6900365 C47.7627969,62.6900365 54.5907772,59.8616901 59.7262336,54.7260978 C64.861826,49.5906413 67.6900365,42.762661 67.6900365,35.5 L67.6900365,35.5 L70,35.5 C70,43.379693 66.9314173,50.7878818 61.3596496,56.3596496 C55.7878818,61.9314173 48.3798289,65 40.5,65 C32.620307,65 25.2122541,61.9314173 19.6404863,56.3596496 C14.0685827,50.7878818 11,43.3798289 11,35.5 C11,27.620307 14.0685827,20.2121182 19.6404863,14.6402146 C25.2122541,9.06844677 32.620307,6 40.5,6 Z M48.0771674,21.9213012 L55.0805139,27.3198378 L55.0805139,48.9706741 L25.0256551,48.9706741 L25.0256551,27.3198378 L32.0291398,21.9213012 L48.0771674,21.9213012 Z M52.7297016,29.0327333 L27.3764674,29.0327333 L27.3764674,46.665114 L52.7297016,46.665114 L52.7297016,29.0327333 Z M47.2639247,24.2268612 L32.8423826,24.2268612 L29.5986765,26.7271733 L50.5074925,26.7271733 L47.2639247,24.2268612 Z" fill="#000000" mask="url(#mask-2)"></path>
                    </g>
                </g>
            </g>
        </g>
    </g>
</svg>