<?xml version="1.0" encoding="UTF-8"?>
<svg width="75px" height="45px" viewBox="0 0 75 45" version="1.1" xmlns="http://www.w3.org/2000/svg" xmlns:xlink="http://www.w3.org/1999/xlink">
    <!-- Generator: Sketch 60 (88103) - https://sketch.com -->
    <title>Icon</title>
    <desc>Created with Sketch.</desc>
    <defs>
        <rect id="path-1" x="0" y="0" width="80" height="70"></rect>
    </defs>
    <g id="Page-1" stroke="none" stroke-width="1" fill="none" fill-rule="evenodd">
        <g id="Desktop/4---Product" transform="translate(-684.000000, -5912.000000)">
            <g id="Module-6-Returns" transform="translate(0.000000, 5740.000000)">
                <g id="Callout-2" transform="translate(577.000000, 160.000000)">
                    <g id="Icon" transform="translate(104.000000, 0.000000)">
                        <mask id="mask-2" fill="white">
                            <use xlink:href="#path-1"></use>
                        </mask>
                        <g id="Mask"></g>
                        <path d="M75.6949069,48.8937955 L73.1000501,48.8937955 C72.5469633,45.5748476 69.5849187,43.0325792 66.0236855,43.0325792 C62.4624523,43.0325792 59.5004077,45.5748476 58.9473209,48.8937955 L55.8529369,48.8937955 L55.8529369,24.6326308 L66.1268723,24.6326308 L75.6949069,37.135573 L75.6949069,48.8937955 Z M66.0236855,54.7548798 C63.3410995,54.7548798 61.1585832,52.6291472 61.1585832,50.0163556 C61.1585832,47.403432 63.3410995,45.2776994 66.0236855,45.2776994 C68.7062715,45.2776994 70.8887878,47.403432 70.8887878,50.0163556 C70.8887878,52.6291472 68.7062715,54.7548798 66.0236855,54.7548798 L66.0236855,54.7548798 Z M53.5478438,48.8937955 L27.715886,48.8937955 C27.1627992,45.5748476 24.2008902,43.0325792 20.6395214,43.0325792 C17.0782882,43.0325792 14.1162436,45.5748476 13.5631568,48.8937955 L5.30509308,48.8937955 L5.30509308,17.4257951 C5.30509308,15.671828 6.77018312,14.2451202 8.5708676,14.2451202 L53.5478438,14.2451202 L53.5478438,48.8937955 Z M20.6395214,54.7548798 C17.9569354,54.7548798 15.7744191,52.6291472 15.7744191,50.0163556 C15.7744191,47.403432 17.9569354,45.2776994 20.6395214,45.2776994 C23.322243,45.2776994 25.5047593,47.403432 25.5047593,50.0163556 C25.5047593,52.6291472 23.322243,54.7548798 20.6395214,54.7548798 L20.6395214,54.7548798 Z M78,36.3908534 L67.2836223,22.3875107 L55.8529369,22.3875107 L55.8529369,12 L8.5708676,12 C5.49912768,12 3,14.4339744 3,17.4257951 L3,51.1389157 L13.5631568,51.1389157 C14.1162436,54.4577316 17.0782882,57 20.6395214,57 C24.2008902,57 27.1627992,54.4577316 27.715886,51.1389157 L54.7003903,51.1389157 L55.8529369,51.1389157 L58.9473209,51.1389157 C59.5004077,54.4577316 62.4624523,57 66.0236855,57 C69.5849187,57 72.5469633,54.4577316 73.1000501,51.1389157 L78,51.1389157 L78,36.3908534 Z" fill="#000000" mask="url(#mask-2)"></path>
                    </g>
                </g>
            </g>
        </g>
    </g>
</svg>