<?xml version="1.0" encoding="utf-8"?>
<!-- Generator: Adobe Illustrator 24.0.3, SVG Export Plug-In . SVG Version: 6.00 Build 0)  -->
<svg version="1.1" id="Layer_1" xmlns="http://www.w3.org/2000/svg" xmlns:xlink="http://www.w3.org/1999/xlink" x="0px" y="0px"
	 viewBox="0 0 420 140" style="enable-background:new 0 0 420 140;" xml:space="preserve">
<style type="text/css">
	.st0{display:none;fill:#1E2556;}
	.st1{fill:#FFFFFF;}
	.st2{fill-rule:evenodd;clip-rule:evenodd;fill:#FFFFFF;}
	.st3{fill:#EF4755;}
	.st4{display:none;}
	.st5{display:inline;}
	.st6{fill:#4DD56C;}
</style>
<g id="Layer_1_1_">
	<rect x="-87.7" y="-69.1" class="st0" width="587" height="279.2"/>
	<g>
		<path class="st1" d="M17.5,5.2v1.9H7.9v4.8h8.9v1.9H7.9V21H5.9V5.2H17.5z"/>
		<path class="st1" d="M31.8,5.2v2h-9.6V12h8.9v1.9h-8.9V19h9.7v2H20.2V5.2H31.8z"/>
		<path class="st1" d="M46.8,5.2v2h-9.6V12h8.9v1.9h-8.9V19h9.7v2H35.2V5.2H46.8z"/>
		<path class="st1" d="M56.5,5.2c1.6,0,3.1,0.3,4.3,0.9s2.2,1.5,2.8,2.7s1,2.6,1,4.2c0,1.6-0.3,3-1,4.2c-0.7,1.2-1.6,2.1-2.8,2.8
			s-2.6,1-4.2,1h-6.3V5.2H56.5z M60.8,17.5c1-1.1,1.6-2.6,1.6-4.4c0-1.9-0.5-3.3-1.6-4.4s-2.5-1.6-4.3-1.6h-4.2v12h4.2
			C58.3,19.1,59.8,18.6,60.8,17.5z"/>
		<path class="st1" d="M79.8,16.7c0,0.8-0.2,1.6-0.6,2.2s-1,1.2-1.8,1.5S75.7,21,74.8,21h-7.4V5.2h6.8c1.5,0,2.7,0.4,3.6,1.1
			c0.9,0.8,1.3,1.8,1.3,3c0,0.9-0.2,1.6-0.6,2.2s-0.9,1-1.6,1.3c0.9,0.2,1.6,0.6,2.1,1.3C79.5,14.9,79.8,15.7,79.8,16.7z M73.7,12.1
			c1.1,0,1.9-0.2,2.4-0.6c0.6-0.4,0.8-1,0.8-1.8s-0.3-1.4-0.9-1.8s-1.4-0.6-2.5-0.6h-4.1v4.9H73.7z M77.6,16.3
			c0-0.8-0.3-1.4-0.9-1.8c-0.6-0.4-1.4-0.6-2.5-0.6h-4.8V19h4.7c1.1,0,1.9-0.2,2.5-0.7C77.3,17.8,77.6,17.2,77.6,16.3z"/>
		<path class="st1" d="M90.4,5.2l7,15.8H95l-1.7-4h-8.4l-1.7,4h-2.3l7-15.8C87.8,5.2,90.4,5.2,90.4,5.2z M89.1,7.4L85.8,15h6.7
			L89.1,7.4z"/>
		<path class="st1" d="M99,17.3c-0.7-1.3-1-2.7-1-4.3c0-1.6,0.3-3,1-4.2c0.7-1.2,1.6-2.2,2.8-2.9s2.6-1,4.1-1c1.2,0,2.3,0.2,3.3,0.7
			c1,0.5,1.8,1.1,2.5,2s1.1,1.8,1.2,3h-2.2c-0.2-0.7-0.5-1.4-0.9-1.9s-1.1-1-1.8-1.3c-0.7-0.3-1.4-0.5-2.2-0.5c-1.1,0-2.1,0.2-3,0.8
			s-1.5,1.2-2,2.1s-0.7,2-0.7,3.2c0,1.2,0.2,2.4,0.7,3.3s1.1,1.7,2,2.3c0.8,0.5,1.8,0.8,2.9,0.8c0.8,0,1.6-0.2,2.4-0.5
			s1.3-0.8,1.8-1.4s0.8-1.3,0.9-2.1h2.2c-0.2,1.2-0.6,2.2-1.3,3.1c-0.7,0.9-1.5,1.6-2.5,2.1s-2.1,0.7-3.3,0.7
			c-1.6,0-2.9-0.4-4.1-1.1S99.7,18.6,99,17.3z"/>
		<path class="st1" d="M118,5.2v8.5l8.9-8.5h2.9l-7.3,6.9l7.4,8.9h-2.8l-6.1-7.4l-3,2.8V21h-2.1V5.2H118z"/>
	</g>
	<g>
		<path class="st1" d="M85.9,81.8c-0.7-1.2-1-2.7-1-4.3c0-1.6,0.3-3,1-4.2c0.7-1.2,1.6-2.2,2.8-2.9s2.6-1,4.1-1
			c1.2,0,2.3,0.2,3.3,0.7s1.8,1.1,2.5,1.8c0.7,0.8,1.1,1.7,1.2,2.8h-2.2c-0.2-0.6-0.5-1.2-0.9-1.7s-1.1-0.9-1.8-1.2
			c-0.7-0.3-1.4-0.4-2.2-0.4c-1.1,0-2.1,0.2-3,0.8s-1.5,1.2-2,2.1s-0.7,2-0.7,3.2c0,1.3,0.2,2.4,0.7,3.3s1.1,1.7,2,2.3
			s1.8,0.8,2.9,0.8c1,0,1.9-0.2,2.6-0.6s1.4-1,1.8-1.7s0.7-1.5,0.7-2.4h-5.3v-1.8h7.4v8.2h-1.8l0-2.7c-1,2-2.8,3-5.5,3
			c-1.5,0-2.9-0.3-4-1.1C87.4,84.1,86.5,83.1,85.9,81.8z"/>
		<path class="st1" d="M103.2,83.2c-0.4-0.8-0.7-1.8-0.7-2.9c0-1.1,0.2-2,0.7-2.8s1.1-1.5,1.9-2c0.8-0.5,1.7-0.7,2.7-0.7
			c1,0,1.9,0.2,2.7,0.7s1.4,1.1,1.9,1.9c0.4,0.8,0.7,1.8,0.7,2.8s-0.2,2-0.7,2.9c-0.4,0.8-1.1,1.5-1.9,2c-0.8,0.5-1.7,0.7-2.7,0.7
			c-1,0-1.9-0.2-2.7-0.7C104.3,84.7,103.7,84,103.2,83.2z M110.7,82.3c0.3-0.6,0.4-1.2,0.4-2c0-0.7-0.1-1.4-0.4-1.9
			c-0.3-0.6-0.7-1-1.2-1.3s-1.1-0.5-1.7-0.5c-0.6,0-1.2,0.2-1.7,0.5c-0.5,0.3-0.9,0.8-1.2,1.3c-0.3,0.6-0.4,1.2-0.4,1.9
			c0,0.7,0.1,1.4,0.4,2s0.7,1,1.2,1.3s1.1,0.5,1.7,0.5c0.6,0,1.2-0.2,1.7-0.5C110,83.3,110.4,82.8,110.7,82.3z"/>
		<path class="st1" d="M116,83.2c-0.4-0.8-0.7-1.8-0.7-2.9c0-1.1,0.2-2,0.7-2.8s1.1-1.5,1.9-2c0.8-0.5,1.7-0.7,2.7-0.7
			c1,0,1.9,0.2,2.7,0.7s1.4,1.1,1.9,1.9c0.4,0.8,0.7,1.8,0.7,2.8s-0.2,2-0.7,2.9c-0.4,0.8-1.1,1.5-1.9,2c-0.8,0.5-1.7,0.7-2.7,0.7
			c-1,0-1.9-0.2-2.7-0.7S116.4,84,116,83.2z M123.4,82.3c0.3-0.6,0.4-1.2,0.4-2c0-0.7-0.1-1.4-0.4-1.9c-0.3-0.6-0.7-1-1.2-1.3
			s-1.1-0.5-1.7-0.5c-0.6,0-1.2,0.2-1.7,0.5c-0.5,0.3-0.9,0.8-1.2,1.3c-0.3,0.6-0.4,1.2-0.4,1.9c0,0.7,0.1,1.4,0.4,2s0.7,1,1.2,1.3
			s1.1,0.5,1.7,0.5c0.6,0,1.2-0.2,1.7-0.5C122.8,83.3,123.1,82.8,123.4,82.3z"/>
		<path class="st1" d="M128.6,83.2c-0.4-0.8-0.6-1.8-0.6-2.9c0-1.1,0.2-2,0.6-2.8c0.4-0.8,0.9-1.5,1.7-1.9c0.7-0.5,1.5-0.7,2.4-0.7
			c0.8,0,1.4,0.2,2,0.5c0.6,0.3,1.1,0.8,1.4,1.4v-7h2v15.8h-2v-1.6c-0.4,0.6-0.9,1.1-1.4,1.4c-0.6,0.3-1.2,0.5-2,0.5
			c-0.9,0-1.7-0.2-2.4-0.7C129.6,84.7,129,84,128.6,83.2z M135.8,82.3c0.3-0.6,0.4-1.2,0.4-2c0-0.7-0.1-1.4-0.4-1.9s-0.6-1-1.1-1.3
			s-1-0.5-1.6-0.5s-1.1,0.2-1.6,0.5s-0.8,0.8-1.1,1.3s-0.4,1.2-0.4,1.9c0,0.7,0.1,1.4,0.4,2s0.6,1,1.1,1.3s1,0.5,1.6,0.5
			s1.1-0.2,1.6-0.5C135.2,83.3,135.6,82.8,135.8,82.3z"/>
		<path class="st1" d="M91.9,93.7c1.6,0,3.1,0.3,4.3,0.9s2.2,1.5,2.8,2.7c0.7,1.2,1,2.6,1,4.2c0,1.6-0.3,3-1,4.2s-1.6,2.1-2.8,2.8
			s-2.6,1-4.2,1h-6.3V93.7C85.6,93.7,91.9,93.7,91.9,93.7z M96.2,106c1-1.1,1.6-2.6,1.6-4.4c0-1.9-0.5-3.3-1.6-4.4
			c-1-1.1-2.5-1.6-4.3-1.6h-4.2v12h4.2C93.7,107.6,95.2,107.1,96.2,106z"/>
		<path class="st1" d="M102.8,107.2c-0.4-0.8-0.7-1.8-0.7-2.9c0-1.1,0.2-2,0.7-2.8s1.1-1.5,1.9-2c0.8-0.5,1.7-0.7,2.7-0.7
			c0.9,0,1.7,0.2,2.4,0.6s1.3,1,1.7,1.8c0.4,0.8,0.6,1.8,0.6,2.9v0.8h-7.9c0.1,1,0.4,1.8,0.9,2.3c0.6,0.6,1.3,0.9,2.2,0.9
			c0.7,0,1.2-0.2,1.7-0.5c0.5-0.3,0.7-0.7,0.8-1.2h2c-0.1,0.6-0.4,1.2-0.8,1.7c-0.4,0.5-0.9,0.9-1.6,1.2s-1.4,0.4-2.2,0.4
			c-1,0-1.9-0.2-2.7-0.7C103.9,108.7,103.2,108,102.8,107.2z M109.2,101.3c-0.5-0.5-1.1-0.8-1.9-0.8c-0.9,0-1.6,0.3-2.1,0.8
			s-0.9,1.2-1,2.1h5.8C110,102.6,109.7,101.9,109.2,101.3z"/>
		<path class="st1" d="M116.7,99.1v1.6c0.4-0.6,0.8-1.1,1.4-1.4c0.6-0.3,1.2-0.5,2-0.5c0.9,0,1.7,0.2,2.4,0.7s1.3,1.1,1.7,2
			c0.4,0.8,0.6,1.8,0.6,2.9c0,1.1-0.2,2-0.6,2.8s-0.9,1.5-1.7,1.9c-0.7,0.5-1.5,0.7-2.4,0.7c-0.8,0-1.4-0.2-2-0.5
			c-0.6-0.3-1.1-0.8-1.4-1.4v5.6h-2V99.1C114.7,99.1,116.7,99.1,116.7,99.1z M122.4,106.3c0.3-0.6,0.4-1.2,0.4-1.9
			c0-0.7-0.1-1.4-0.4-2s-0.6-1-1.1-1.3c-0.5-0.3-1-0.5-1.6-0.5s-1.1,0.2-1.6,0.5c-0.5,0.3-0.8,0.8-1.1,1.3s-0.4,1.2-0.4,2
			c0,0.7,0.1,1.4,0.4,1.9s0.6,1,1.1,1.3s1,0.5,1.6,0.5s1.1-0.2,1.6-0.5S122.1,106.9,122.4,106.3z"/>
		<path class="st1" d="M129.6,109.3c-0.4-0.2-0.7-0.5-0.9-0.9s-0.3-1-0.3-1.8v-5.8h-2.2v-1.8h2.2v-2.8h2v2.8h3v1.8h-3v5
			c0,0.5,0,0.9,0.1,1.2s0.2,0.4,0.4,0.5s0.5,0.2,0.9,0.2c0.3,0,0.7,0,1.1-0.1v1.8c-0.7,0.1-1.3,0.1-1.7,0.1
			C130.6,109.6,130,109.5,129.6,109.3z"/>
		<path class="st1" d="M137.8,93.7v7.1c0.4-0.6,0.9-1.1,1.5-1.5s1.3-0.5,2.2-0.5c1.3,0,2.2,0.4,2.9,1.1s1,1.8,1,3.3v6.3h-2.1v-6.2
			c0-0.9-0.2-1.6-0.6-2.1c-0.4-0.5-1-0.7-1.8-0.7c-0.9,0-1.7,0.3-2.2,1.1s-0.8,1.6-0.8,2.7v5.2h-2V93.7H137.8z"/>
	</g>
	<g>
		<path class="st1" d="M313.8,69.7v8.5l8.9-8.5h2.9l-7.3,6.9l7.4,8.9h-2.8l-6.1-7.4l-3,2.8v4.6h-2.1V69.7L313.8,69.7L313.8,69.7z"/>
		<path class="st1" d="M329.3,75.1v1.8c0.4-0.7,0.9-1.2,1.5-1.5s1.3-0.6,2.2-0.6c1.2,0,2.2,0.4,2.9,1.1s1,1.9,1,3.4v6.2h-2.1v-6.1
			c0-0.9-0.2-1.6-0.6-2.1s-1-0.8-1.7-0.8c-0.6,0-1.1,0.2-1.6,0.5c-0.5,0.3-0.8,0.8-1.1,1.4c-0.2,0.6-0.4,1.2-0.4,2v5.1h-2V75.1
			C327.2,75.1,329.3,75.1,329.3,75.1z"/>
		<path class="st1" d="M339.8,83.2c-0.5-0.8-0.7-1.8-0.7-2.9c0-1.1,0.2-2,0.7-2.8c0.5-0.8,1.1-1.5,1.9-2s1.7-0.7,2.7-0.7
			c0.9,0,1.6,0.2,2.4,0.6s1.3,1,1.7,1.8s0.6,1.8,0.6,2.9V81h-7.9c0.1,1,0.4,1.8,0.9,2.3s1.3,0.9,2.2,0.9c0.7,0,1.2-0.2,1.7-0.5
			s0.7-0.7,0.9-1.2h2c-0.1,0.6-0.4,1.2-0.8,1.7s-1,0.9-1.6,1.2s-1.4,0.4-2.2,0.4c-1,0-1.9-0.2-2.7-0.7
			C340.9,84.7,340.3,84,339.8,83.2z M346.2,77.3c-0.5-0.5-1.1-0.8-1.9-0.8c-0.9,0-1.6,0.3-2.1,0.8c-0.5,0.5-0.9,1.2-1,2.1h5.8
			C347,78.6,346.7,77.9,346.2,77.3z"/>
		<path class="st1" d="M352,83.2c-0.5-0.8-0.7-1.8-0.7-2.9c0-1.1,0.2-2,0.7-2.8c0.5-0.8,1.1-1.5,1.9-2c0.8-0.5,1.7-0.7,2.7-0.7
			c0.9,0,1.6,0.2,2.4,0.6s1.3,1,1.7,1.8s0.6,1.8,0.6,2.9V81h-7.9c0.1,1,0.4,1.8,0.9,2.3s1.3,0.9,2.2,0.9c0.7,0,1.2-0.2,1.7-0.5
			s0.7-0.7,0.9-1.2h2c-0.1,0.6-0.4,1.2-0.8,1.7s-1,0.9-1.6,1.2s-1.4,0.4-2.2,0.4c-1,0-1.9-0.2-2.7-0.7C353,84.7,352.4,84,352,83.2z
			 M358.4,77.3c-0.5-0.5-1.1-0.8-1.9-0.8c-0.9,0-1.6,0.3-2.1,0.8c-0.5,0.5-0.9,1.2-1,2.1h5.8C359.1,78.6,358.9,77.9,358.4,77.3z"/>
		<path class="st1" d="M363.4,82.3h1.9c0,0.6,0.3,1.1,0.8,1.5s1.2,0.5,2,0.5c0.7,0,1.3-0.2,1.7-0.5c0.4-0.3,0.6-0.7,0.6-1.2
			c0-0.4-0.1-0.6-0.4-0.8s-0.5-0.4-0.9-0.4s-0.9-0.2-1.5-0.3c-0.8-0.1-1.5-0.3-2.1-0.4s-1-0.5-1.4-0.9s-0.6-1-0.6-1.7
			c0-0.6,0.2-1.2,0.5-1.7c0.4-0.5,0.9-0.9,1.5-1.2c0.7-0.3,1.5-0.4,2.4-0.4c1.2,0,2.3,0.3,3,1s1.2,1.5,1.3,2.6h-1.9
			c0-0.7-0.3-1.2-0.7-1.5c-0.5-0.4-1.1-0.6-1.9-0.6c-0.7,0-1.2,0.2-1.6,0.5s-0.6,0.7-0.6,1.2c0,0.3,0.1,0.6,0.4,0.8s0.5,0.3,0.9,0.4
			c0.4,0.1,0.8,0.2,1.5,0.3c0.9,0.1,1.6,0.3,2.1,0.4c0.5,0.2,1,0.5,1.4,0.9s0.6,1,0.6,1.8c0,1-0.4,1.7-1.2,2.3
			c-0.8,0.6-1.9,0.9-3.3,0.9c-1.4,0-2.5-0.3-3.4-0.9C363.9,84.3,363.4,83.4,363.4,82.3z"/>
		<path class="st1" d="M312,105.8c-0.7-1.3-1-2.7-1-4.3c0-1.6,0.3-3,1-4.2c0.7-1.2,1.6-2.2,2.8-2.9s2.6-1,4.2-1c1.5,0,2.9,0.3,4.1,1
			s2.1,1.7,2.8,2.9s1,2.6,1,4.2c0,1.6-0.3,3-1,4.3s-1.6,2.2-2.8,2.9s-2.6,1.1-4.1,1.1c-1.6,0-3-0.3-4.2-1.1S312.7,107.1,312,105.8z
			 M324,104.8c0.5-1,0.7-2.1,0.7-3.3c0-1.2-0.2-2.2-0.7-3.1s-1.1-1.6-2-2.2c-0.9-0.5-1.9-0.8-3-0.8c-1.1,0-2.1,0.3-3,0.8
			s-1.6,1.2-2.1,2.2s-0.7,2-0.7,3.1c0,1.2,0.2,2.3,0.7,3.3c0.5,1,1.2,1.7,2.1,2.3s1.9,0.8,3,0.8c1.1,0,2.1-0.3,3-0.8
			C322.9,106.5,323.5,105.7,324,104.8z"/>
		<path class="st1" d="M330.4,99.1l3.7,8.1l3.7-8.1h2.2l-4.8,10.4H333l-4.8-10.4H330.4z"/>
		<path class="st1" d="M341.5,107.2c-0.5-0.8-0.7-1.8-0.7-2.9c0-1.1,0.2-2,0.7-2.8c0.5-0.8,1.1-1.5,1.9-2s1.7-0.7,2.7-0.7
			c0.9,0,1.6,0.2,2.4,0.6s1.3,1,1.7,1.8s0.6,1.8,0.6,2.9v0.8h-7.9c0.1,1,0.4,1.8,0.9,2.3s1.3,0.9,2.2,0.9c0.7,0,1.2-0.2,1.7-0.5
			c0.5-0.3,0.7-0.7,0.9-1.2h2c-0.1,0.6-0.4,1.2-0.8,1.7s-1,0.9-1.6,1.2s-1.4,0.4-2.2,0.4c-1,0-1.9-0.2-2.7-0.7
			C342.5,108.7,341.9,108,341.5,107.2z M347.9,101.3c-0.5-0.5-1.1-0.8-1.9-0.8c-0.9,0-1.6,0.3-2.1,0.8c-0.5,0.5-0.9,1.2-1,2.1h5.8
			C348.7,102.6,348.4,101.9,347.9,101.3z"/>
		<path class="st1" d="M355.3,99.1v2c0.7-1.4,2.1-2.1,4.2-2.1v1.9c-1.3,0-2.3,0.2-3,0.7s-1.1,1.2-1.1,2.1v5.9h-1.9V99.1H355.3z"/>
		<path class="st1" d="M366,95.8v-2.1h14.8v2.1h-6.3v13.7h-2.1V95.8H366z"/>
		<path class="st1" d="M379.5,107.2c-0.5-0.8-0.7-1.8-0.7-2.9c0-1.1,0.2-2,0.7-2.8c0.5-0.8,1.1-1.5,1.9-2c0.8-0.5,1.7-0.7,2.7-0.7
			c1,0,1.9,0.2,2.7,0.7c0.8,0.5,1.4,1.1,1.9,1.9c0.5,0.8,0.7,1.8,0.7,2.8s-0.2,2-0.7,2.9s-1.1,1.5-1.9,2c-0.8,0.5-1.7,0.7-2.7,0.7
			c-1,0-1.9-0.2-2.7-0.7S380,108,379.5,107.2z M387,106.3c0.3-0.6,0.4-1.2,0.4-2c0-0.7-0.1-1.4-0.4-1.9s-0.7-1-1.1-1.3
			s-1-0.5-1.7-0.5c-0.6,0-1.2,0.2-1.7,0.5s-0.9,0.8-1.1,1.3s-0.4,1.2-0.4,1.9c0,0.7,0.1,1.4,0.4,2s0.7,1,1.1,1.3s1,0.5,1.7,0.5
			c0.6,0,1.2-0.2,1.7-0.5C386.3,107.3,386.7,106.8,387,106.3z"/>
		<path class="st1" d="M392.3,107.2c-0.5-0.8-0.7-1.8-0.7-2.9c0-1.1,0.2-2,0.7-2.8c0.5-0.8,1.1-1.5,1.9-2c0.8-0.5,1.7-0.7,2.7-0.7
			c0.9,0,1.6,0.2,2.4,0.6s1.3,1,1.7,1.8s0.6,1.8,0.6,2.9v0.8h-7.9c0.1,1,0.4,1.8,0.9,2.3s1.3,0.9,2.2,0.9c0.7,0,1.2-0.2,1.7-0.5
			c0.5-0.3,0.7-0.7,0.9-1.2h2c-0.1,0.6-0.4,1.2-0.8,1.7s-1,0.9-1.6,1.2s-1.4,0.4-2.2,0.4c-1,0-1.9-0.2-2.7-0.7
			C393.4,108.7,392.7,108,392.3,107.2z M398.7,101.3c-0.5-0.5-1.1-0.8-1.9-0.8c-0.9,0-1.6,0.3-2.1,0.8c-0.5,0.5-0.9,1.2-1,2.1h5.8
			C399.5,102.6,399.2,101.9,398.7,101.3z"/>
		<path class="st1" d="M403.8,106.3h1.9c0,0.6,0.3,1.1,0.8,1.5s1.2,0.5,2,0.5c0.7,0,1.3-0.2,1.7-0.5c0.4-0.3,0.6-0.7,0.6-1.2
			c0-0.4-0.1-0.6-0.4-0.8s-0.5-0.4-0.9-0.4s-0.9-0.2-1.5-0.3c-0.8-0.1-1.5-0.3-2.1-0.4s-1-0.5-1.4-0.9s-0.6-1-0.6-1.7
			c0-0.6,0.2-1.2,0.5-1.7c0.4-0.5,0.9-0.9,1.5-1.2c0.7-0.3,1.5-0.4,2.4-0.4c1.2,0,2.3,0.3,3,1s1.2,1.5,1.3,2.6h-1.9
			c0-0.7-0.3-1.2-0.7-1.5s-1.1-0.6-1.9-0.6c-0.7,0-1.2,0.2-1.6,0.5s-0.6,0.7-0.6,1.2c0,0.3,0.1,0.6,0.4,0.8s0.5,0.3,0.9,0.4
			c0.4,0.1,0.8,0.2,1.5,0.3c0.9,0.1,1.6,0.3,2.1,0.4c0.5,0.2,1,0.5,1.4,0.9s0.6,1,0.6,1.8c0,1-0.4,1.7-1.2,2.3
			c-0.8,0.6-1.9,0.9-3.3,0.9c-1.4,0-2.5-0.3-3.4-0.9C404.2,108.3,403.8,107.4,403.8,106.3z"/>
	</g>
	<g id="_x34_.-Class-Viewer-Page---Leaderboard-view">
		<g id="Feedback-Correction" transform="translate(-30.000000, -1542.000000)">
			<g id="feedback-knees-over-toes" transform="translate(30.000000, 1543.000000)">
				<g id="Path">
					<g>
						<path class="st1" d="M241.8,127.9c-0.7,0-1.4-0.4-1.8-1c-0.4-0.6-0.4-1.4-0.1-2l1.1-2.1c0.2-0.4,0.6-0.7,1-0.8
							c0.2-0.1,0.5-0.1,0.7,0l7.2-16.5l-14.3,1.3c-2.8,0.2-5.2-1.1-6.3-3.4c-1-2.2-0.5-4.6,1.4-6.4l15.7-16.3
							c2.8-2.7,6.8-3.8,10.6-2.8l14.1,3.4l11.2,1.7l9.9,0.6c0.5,0,0.9,0.4,0.9,0.8c0.1,0.5-0.2,0.9-0.6,1.1l-6.2,2.4
							c-0.9,0.4-2,0.3-2.8-0.2l-1.7-0.9l-12.2-0.4L259,86c-0.9-0.1-1.8,0.4-2.3,1c0,0-0.1,0.1-0.1,0.1L242,97.4l15.9-0.1
							c1.1,0,2.2,0.6,2.9,1.5c0.7,0.9,0.9,2.1,0.5,3.2c0,0,0,0.1-0.1,0.1l-13.3,19.7c0.4,0,0.8,0.1,1.2,0.3l5.8,3.5
							c0.5,0.3,0.7,0.9,0.6,1.4c-0.1,0.5-0.6,0.9-1.2,0.9L241.8,127.9L241.8,127.9z M242.3,122.9c0,0-0.1,0-0.1,0
							c-0.1,0-0.3,0.1-0.3,0.3l-1.1,2.1c-0.2,0.3-0.1,0.7,0.1,1c0.2,0.3,0.6,0.5,0.9,0.5h12.4c0.1,0,0.2-0.1,0.2-0.2
							c0-0.1,0-0.2-0.1-0.2l-5.8-3.5c-0.4-0.2-0.8-0.2-1.2-0.1l-0.4,0.2c-0.2,0.1-0.4,0-0.6-0.1s-0.1-0.4,0-0.6l14-20.8
							c0.2-0.7,0.1-1.6-0.4-2.2c-0.5-0.7-1.2-1.1-2.1-1.1l-17.5,0.1l0,0c-0.2,0-0.4-0.1-0.5-0.3c-0.1-0.2,0-0.4,0.2-0.6l15.8-11.2
							c0.8-0.9,1.9-1.3,3.1-1.3l10.6,0.2l12.4,0.4c0.1,0,0.1,0,0.2,0.1l1.8,1c0.6,0.3,1.4,0.4,2,0.1l6.2-2.4l-9.9-0.6l-11.3-1.7
							l-14.2-3.4c-3.4-0.8-7.1,0.2-9.6,2.6l-15.7,16.3c-1.6,1.5-2,3.5-1.2,5.3c0.9,1.9,3,3,5.3,2.8l15.1-1.4c0.2,0,0.4,0.1,0.4,0.2
							c0.1,0.1,0.1,0.3,0.1,0.5l-7.8,17.8c-0.1,0.2-0.2,0.3-0.4,0.3c-0.2,0-0.3,0-0.4-0.1l0,0C242.5,123,242.4,122.9,242.3,122.9z"
							/>
					</g>
				</g>
				<g id="Oval">
					<g>
						<path class="st1" d="M256.7,74.2c-3.5,0-6.4-2.9-6.4-6.4c0-3.5,2.9-6.4,6.4-6.4s6.4,2.9,6.4,6.4
							C263.1,71.3,260.2,74.2,256.7,74.2z M256.7,62.3c-3,0-5.4,2.4-5.4,5.4s2.4,5.4,5.4,5.4s5.4-2.4,5.4-5.4S259.7,62.3,256.7,62.3
							z"/>
					</g>
				</g>
			</g>
		</g>
	</g>
	<g id="Page-1">
		<g id="group-16">
			<g id="Group" transform="translate(0.000000, 20.916000)">
				<g id="Clipped">
					<g id="a">
					</g>
					<g id="Path_1_">
						<path class="st2" d="M28,107.9c-0.8,0-1.5-0.4-2-1.1c-0.4-0.7-0.5-1.5-0.1-2.2l1.1-2.3c0.3-0.6,0.9-0.9,1.5-0.9l-0.3-6.8
							c-0.2-2.9,0.5-5.7,1.9-8.3l0.7-1.2L13,86.4c-2.9,0.2-5.6-1.2-6.7-3.7c-1.1-2.4-0.5-5.1,1.5-7.1l8.9-9.8
							c0.1-0.2,0.4-0.2,0.6-0.2c0.2,0.1,0.4,0.2,0.5,0.4c0.1,0.2,0,0.4-0.1,0.6l-8.9,9.9c-1.7,1.6-2.1,3.8-1.2,5.7
							c0.9,2,3.1,3.2,5.5,3l18.9-1.5c0.2,0,0.4,0.1,0.6,0.3s0.1,0.4,0,0.6l-1.2,2.2c-1.3,2.3-1.9,5-1.7,7.6l0.4,7.7
							c0,0.2-0.1,0.5-0.3,0.6s-0.5,0.1-0.7-0.1c-0.1-0.1-0.2-0.1-0.4-0.1s-0.2,0.1-0.3,0.2l-1.1,2.3c-0.2,0.3-0.1,0.7,0,1.1
							s0.5,0.5,0.9,0.5h13.2c0.1,0,0.1,0,0.1-0.1c0,0,0-0.1,0-0.1c0-0.1,0-0.1-0.1-0.2l-6.2-3.8c-0.3-0.2-0.8-0.2-1.2-0.1l-0.5,0.2
							c-0.2,0.1-0.5,0.1-0.7-0.1s-0.2-0.4-0.2-0.6l6.5-21.2c0.5-1.4-0.3-2.9-1.7-3.4c-0.3-0.1-0.5-0.1-0.8-0.1l-18.5,0.1l0,0
							c-0.3,0-0.5-0.2-0.6-0.4c-0.1-0.3,0-0.5,0.2-0.7l16.7-11.4c2-1.3,2.8-3.5,2.2-5.9c-0.5-1.9-2.2-3.9-4.7-4.1
							c-0.3,0-0.6-0.3-0.5-0.7c0-0.3,0.3-0.6,0.6-0.6c2.7,0.2,5,2.2,5.8,5s-0.3,5.6-2.7,7.2L35,66L20.1,76.1L36.6,76
							c0.4,0,0.8,0.1,1.2,0.2c2,0.7,3.1,2.9,2.5,4.9l-6.1,20c0.5-0.1,1.1,0.1,1.6,0.3l6.2,3.8c0.4,0.2,0.7,0.7,0.7,1.2
							c0,0.4-0.1,0.7-0.4,1c-0.3,0.3-0.6,0.4-1,0.4L28,107.9L28,107.9z"/>
					</g>
				</g>
			</g>
			<g id="Shape">
				<path class="st1" d="M43,63.1c-2.8,0-5.1,2.3-5.1,5.1s2.3,5.1,5.1,5.1S48,71,48,68.2S45.8,63.1,43,63.1 M43,74.4
					c-3.5,0-6.3-2.8-6.3-6.3c0-3.5,2.8-6.3,6.3-6.3s6.3,2.8,6.3,6.3C49.3,71.6,46.5,74.4,43,74.4"/>
			</g>
			<g id="Group_1_" transform="translate(0.608000, 0.250000)">
				<g id="Clipped_1_">
					<g id="c">
					</g>
					<g id="Shape_1_">
						<path class="st1" d="M20,54.8c-7,0-12.7,5.7-12.7,12.7S13,80.2,20,80.2c7,0,12.7-5.7,12.7-12.7C32.7,60.5,27,54.8,20,54.8
							 M20,81.5c-7.7,0-13.9-6.3-13.9-13.9s6.3-14,13.9-14s14,6.3,14,14S27.7,81.5,20,81.5"/>
					</g>
				</g>
			</g>
			<g id="Shape_2_">
				<path class="st1" d="M20.9,65.1c-1.5,0-2.6,1.2-2.6,2.7c0,1.5,1.2,2.6,2.6,2.7c1.5,0,2.6-1.2,2.6-2.7
					C23.5,66.3,22.3,65.1,20.9,65.1 M20.9,71.7c-2.1,0-3.9-1.7-3.9-3.9c0-2.1,1.7-3.9,3.9-3.9c2.1,0,3.9,1.7,3.9,3.9
					C24.8,69.9,23,71.7,20.9,71.7 M20.3,90.2c-1,0-2-0.4-2.7-1.1c-0.8-0.7-1.2-1.7-1.2-2.8l-0.1-5.6c0-0.3,0.3-0.6,0.6-0.6h0
					c0.3,0,0.6,0.3,0.6,0.6l0.1,5.6c0,0.7,0.3,1.4,0.9,1.9c0.9,0.9,2.3,1,3.3,0.3l8.5-5.3c0.2-0.1,0.4-0.1,0.6,0s0.3,0.3,0.3,0.5
					c0,0.2-0.1,0.4-0.3,0.6l-8.4,5.3C21.7,90,21,90.2,20.3,90.2"/>
			</g>
		</g>
	</g>
	<g id="Incorrect">
		<g>
			<circle class="st3" cx="274.5" cy="121.1" r="12"/>
		</g>
		<g>
			<g>
				<path class="st1" d="M269.5,126L269.5,126c-0.3-0.3-0.3-0.7,0-1l8.9-8.9c0.3-0.3,0.7-0.3,1,0l0,0c0.3,0.3,0.3,0.7,0,1l-8.9,8.9
					C270.2,126.3,269.8,126.3,269.5,126z"/>
			</g>
			<g>
				<path class="st1" d="M269.5,116.2L269.5,116.2c0.3-0.3,0.7-0.3,1,0l8.9,8.9c0.3,0.3,0.3,0.7,0,1l0,0c-0.3,0.3-0.7,0.3-1,0
					l-8.9-8.9C269.3,116.9,269.3,116.4,269.5,116.2z"/>
			</g>
		</g>
	</g>
	<g id="Correct" class="st4">
		<g class="st5">
			<circle class="st6" cx="274.2" cy="121" r="12"/>
		</g>
		<g class="st5">
			<g>
				<path class="st1" d="M271.6,126.9L271.6,126.9c-0.3-0.3-0.3-0.7,0-1l8.9-8.9c0.3-0.3,0.7-0.3,1,0l0,0c0.3,0.3,0.3,0.7,0,1
					l-8.9,8.9C272.3,127.2,271.8,127.2,271.6,126.9z"/>
			</g>
			<g>
				<path class="st1" d="M272.5,127L272.5,127c-0.3,0.3-0.7,0.3-1,0l-4.5-4.5c-0.3-0.3-0.3-0.7,0-1l0,0c0.3-0.3,0.7-0.3,1,0l4.5,4.5
					C272.8,126.2,272.8,126.7,272.5,127z"/>
			</g>
		</g>
	</g>
	<g>
		<g>
			<rect x="3.8" y="28.4" class="st1" width="411" height="2"/>
		</g>
		<g id="Correct_1_" class="st4">
			<g class="st5">
				<circle class="st6" cx="274.2" cy="121" r="12"/>
			</g>
			<g class="st5">
				<g>
					<path class="st1" d="M271.6,126.9L271.6,126.9c-0.3-0.3-0.3-0.7,0-1l8.9-8.9c0.3-0.3,0.7-0.3,1,0l0,0c0.3,0.3,0.3,0.7,0,1
						l-8.9,8.9C272.3,127.2,271.8,127.2,271.6,126.9z"/>
				</g>
				<g>
					<path class="st1" d="M272.5,127L272.5,127c-0.3,0.3-0.7,0.3-1,0l-4.5-4.5c-0.3-0.3-0.3-0.7,0-1l0,0c0.3-0.3,0.7-0.3,1,0
						l4.5,4.5C272.8,126.2,272.8,126.7,272.5,127z"/>
				</g>
			</g>
		</g>
		<g id="Correct_2_">
			<g>
				<circle class="st6" cx="59.2" cy="121" r="12"/>
			</g>
			<g>
				<g>
					<path class="st1" d="M56.6,126.9L56.6,126.9c-0.3-0.3-0.3-0.7,0-1l8.9-8.9c0.3-0.3,0.7-0.3,1,0l0,0c0.3,0.3,0.3,0.7,0,1
						l-8.9,8.9C57.3,127.2,56.8,127.2,56.6,126.9z"/>
				</g>
				<g>
					<path class="st1" d="M57.5,127L57.5,127c-0.3,0.3-0.7,0.3-1,0l-4.5-4.5c-0.3-0.3-0.3-0.7,0-1l0,0c0.3-0.3,0.7-0.3,1,0l4.5,4.5
						C57.8,126.2,57.8,126.7,57.5,127z"/>
				</g>
			</g>
		</g>
	</g>
	<g>
		<g>
			<rect x="191.5" y="45.4" class="st1" width="2" height="93"/>
		</g>
	</g>
</g>
<g id="Layer_2_1_">
</g>
</svg>
