<?xml version="1.0" encoding="UTF-8"?>
<svg width="229px" height="31px" viewBox="0 0 229 31" version="1.1" xmlns="http://www.w3.org/2000/svg" xmlns:xlink="http://www.w3.org/1999/xlink">
    <!-- Generator: Sketch 60 (88103) - https://sketch.com -->
    <title>Press Logos</title>
    <desc>Created with Sketch.</desc>
    <g id="Page-1" stroke="none" stroke-width="1" fill="none" fill-rule="evenodd">
        <g id="Mobile/1---Homepage" transform="translate(-73.000000, -5248.000000)" fill="#000000">
            <g id="Module-6-Quotes" transform="translate(0.000000, 5188.000000)">
                <g id="Press-Logos" transform="translate(73.000000, 58.000000)">
                    <path d="M114.374057,3 L117.174839,5.48896769 L118.481198,4.36114814 L118.62963,4.53818281 L117.264598,5.71259043 L117.264598,22.071215 C117.196988,23.1380819 117.024853,24.2235839 116.016136,24.8486405 C113.76634,26.1814476 111.052209,24.643653 108.634552,24.2942425 C106.840156,24.0283023 104.023054,23.6885976 103.315864,25.3331565 C103.085056,25.8735781 103.100987,26.7078928 103.915032,27.2529732 C105.548563,28.3442988 112.822903,25.4216738 115.317884,26.582105 C117.592548,27.6396542 117.583999,29.3133307 117.232736,30.4644442 C116.641339,32.6222484 113.914773,33 113.914773,33 C113.914773,33 115.24833,32.2258616 114.868313,30.9443014 C114.675584,30.2967272 114.235339,30.1146455 112.807749,30.2730449 C109.689897,30.6275025 105.962774,32.136956 103.458856,31.0891126 C102.168041,30.5529616 101.2553,28.9402379 101.343893,27.3562434 C101.408006,25.0769221 104.042093,24.1773841 104.042093,24.1773841 L104.041316,15.746108 C103.965935,15.4106738 102.560492,15.4991912 102.253137,16.1192008 C101.786081,17.0563974 102.834042,17.4850077 102.834042,17.4850077 C102.834042,17.4850077 101.965209,17.6154543 101.237037,16.7764808 C100.882665,16.3661175 100.14167,14.9308167 101.104925,13.6026685 C101.896433,12.5074606 102.845311,12.3164495 104.042093,12.1860029 L104.042093,7.21311454 C104.041705,5.93621317 103.522581,5.22341568 102.681725,5.20439222 C101.471731,5.17643938 101.184581,6.88233924 101.184581,6.88233924 C101.184581,6.88233924 100.964653,5.56816741 102.065459,4.37473632 C102.684445,3.70852691 103.839262,2.77171845 105.644927,3.20537575 C107.509654,3.65728003 108.03927,5.10189846 108.03927,6.37879984 L108.03927,23.9720083 C108.03927,23.9720083 108.743739,24.0562551 109.227115,24.1637959 C109.787815,24.2798778 110.318985,24.4293479 110.318985,24.4293479 L110.318985,3.21469336 L110.55057,3.21469336 L110.55057,6.07597738 L114.374057,3 Z M24.045946,3 L24.045946,13.4759585 L27.5612774,10.3930034 L30.3015391,13.5040598 L31.4889858,12.5903749 L31.6296296,12.7734241 L30.4230737,13.7148202 L30.4226915,20.2136535 L30.342815,23.1888865 C30.3554271,25.2875129 29.4064634,27.3350103 27.5192372,28.2998241 C25.814695,29.1721377 24.4009952,29.0593419 23.5995547,28.8579487 C24.5813862,28.5628842 24.9677746,28.4738966 25.9316434,27.3393035 C26.8958945,26.210565 26.9020095,23.8726867 26.9146215,21.9988714 C26.911725,20.8891136 26.9120299,18.3682152 26.9126477,16.6613431 L26.913475,14.9469874 L25.2024357,12.7777174 L24.0551184,13.7757065 L24.045946,21.9516454 L25.0254844,22.944951 L25.9511348,22.195581 L26.0940718,22.3782399 L22.1564266,25.5778937 L19.6550302,23.2025469 L18.756897,23.8871277 L18.6296296,23.690418 L20.4893386,22.2798851 L20.4893386,7.60550315 C20.4709937,6.71055241 19.8487976,6.59346334 19.6531193,6.46700716 L19.6531193,6.46700716 L24.045946,3 Z M65.3078183,3 C65.5085675,3.20588624 66.2572351,5.33257942 64.425061,7.28211466 C63.8520972,7.89019728 62.6714912,8.33069808 61.8985488,8.36421445 L61.8985488,8.36421445 L61.90009,26.4263433 C61.90009,26.4263433 61.9810062,26.7092373 61.6442407,26.7092373 C61.2531457,26.7092373 61.161826,26.5037501 61.161826,26.5037501 L61.161826,26.5037501 L51.6468508,8.55613554 L51.6468508,21.3258707 C53.0594166,21.540934 54.4781474,22.2838801 55.4776552,23.46214 L55.4776552,23.46214 L56.4617504,22.3217855 L56.6382248,22.4849783 L52.9750325,26.675721 C52.1431369,25.665043 51.1578857,25.1958138 50.1942123,25.3346674 C49.2297681,25.4687328 48.7885822,26.4554706 48.7770227,26.9586151 C48.7589129,27.7442546 49.425123,28.7401695 51.0110806,28.9273025 C48.9596621,29.2911945 47.767882,28.2134837 47.1887532,27.3703875 C46.4782318,26.3361683 46.439315,24.8702263 47.1039838,23.557901 C48.2067561,21.3881154 50.6515815,21.3019304 51.414891,21.3111075 L51.414891,21.3111075 L51.4152763,15.8842494 C51.3578644,15.5538738 49.7711361,15.6831512 49.5542036,16.4735788 C49.311455,17.3549794 50.1213877,17.8002683 50.1213877,17.8002683 C50.1213877,17.8002683 49.5942764,17.8098444 48.9180481,17.3497924 C48.3920928,16.9954765 47.7917716,15.9464941 47.8029457,14.9453922 C47.9555306,12.2537088 50.4543001,12.1387956 51.4137351,12.0717628 L51.4137351,12.0717628 L51.4137351,8.22575994 C51.0407499,7.55982168 50.5564086,6.67363303 49.6258722,6.65926887 C48.5897595,6.64490471 48.3315983,8.3785786 48.3315983,8.3785786 C48.3315983,8.3785786 48.1439497,8.01947469 48.3134884,6.46295873 C48.4633761,5.0836007 49.7183479,3.48359327 51.4715324,3.49316937 C52.9966102,3.50753353 53.9703019,4.47073002 54.6083839,5.56719397 L54.6083839,5.56719397 L61.666589,18.8444626 L61.6673596,8.36421445 C60.7002183,8.29718172 59.7650582,8.18226847 58.4842702,6.96131516 L58.4842702,6.96131516 L57.4354421,8.20181968 L57.2608942,8.0386269 L60.9213893,3.71860683 C60.9213893,3.71860683 61.8426781,4.8725274 63.3538845,4.86813836 C64.5055919,4.8633503 65.1956915,3.92928113 65.3078183,3 Z M149.159077,3 L149.15863,15.385 L152.104887,11.0150353 C152.104887,11.0150353 152.694973,11.7269772 153.722944,12.0053335 C155.120665,12.3759334 156.340682,11 156.340682,11 C156.107198,12.7757911 155.224657,14.7905217 153.402201,15.0977295 C151.796894,15.3708031 150.303548,14.0976787 150.303548,14.0976787 L150.013086,14.5560522 L156.226331,24.1270381 L157.469059,23.0152385 L157.62963,23.2001321 L153.365545,27 L151.00963,23.162 L147.612541,26 L144.89176,23.5553204 L143.802145,24.4718319 L143.62963,24.2939026 L145.530555,22.7096692 L145.530555,8.51035989 C145.530555,7.13637133 144.942619,6.29033077 144.17403,6.35106815 L149.159077,3 Z M39.3785503,11 L41.9676197,16.2526184 L36.8530141,20.6456429 L36.8526631,21.6834652 L39.398909,24.4666974 L42.4969468,21.6289724 L42.6296296,21.8162147 L37.0239573,27 L33.7985018,23.5968605 L32.7693327,24.5650303 L32.6296296,24.3736908 L33.6844227,23.3846252 L33.6844227,14.7772144 C33.6844227,14.7772144 35.2664368,13.8770582 36.4454884,13.0608947 C37.624891,12.2394049 39.3785503,11 39.3785503,11 L39.3785503,11 Z M182.207746,11 L184.834969,14.2577555 L186.029621,13.1635507 L186.181873,13.3524781 L184.92375,14.511316 L184.92375,22.5486043 L186.415118,24.379046 L187.477767,23.3846911 L187.62963,23.5740328 L184.022698,27 L181.526311,23.9365581 L180.380333,24.9760733 L180.228081,24.7867316 L181.319544,23.7720752 L181.319544,15.5508312 L179.772104,13.6010669 L178.78266,14.511316 L178.62963,14.3223885 L182.207746,11 Z M136.999568,11 L138.881599,13.685516 L140.983355,11.1332477 C140.983355,11.1332477 141.272632,11.4342887 141.542878,11.5922118 C141.697205,11.6810436 142.333199,12.0713276 142.916944,11.6909138 C143.233211,11.4836396 143.27854,11.4293536 143.625257,11.0390695 C143.696192,13.0242128 142.894798,14.4212569 141.894439,14.9986634 C141.484746,15.2355481 140.289229,15.6899884 139.038348,13.8779848 L139.038348,23.0506876 L140.369161,24.4481429 L141.479555,23.3566637 L141.607931,23.5495438 L138.12934,27 L135.48294,24.137643 L134.530679,25.203213 L134.374622,25.005809 L135.824813,23.4508418 L135.836924,15.531654 L134.724453,13.7792829 L133.768386,14.7815191 L133.62963,14.5989204 L136.999568,11 Z M78.2571471,9 L78.2247681,9.02060614 C78.0275613,9.14992293 77.0056242,9.8765547 77.2869975,10.8786454 C77.7662762,12.5869245 80.801841,12.7392159 80.8590027,15.0151266 L80.8590027,22.9515864 L83.1006998,24.678325 L83.6899048,24.2349108 L83.6899048,15.6431364 L82.4811152,14.4890289 L85.5930289,11.839312 L88.4355232,14.2628993 L87.3510502,15.3939323 L87.3510502,23.0069651 L90.0132654,25.1213546 L90.4865481,24.8298472 L90.4865481,15.6662109 L89.2757599,14.5767119 L92.3936695,11.8346971 L95.3085153,14.1521419 L96.472535,13.1595556 L96.6296296,13.3349215 L94.0093863,15.5508386 L94.0093863,23.0204252 L87.3038819,27 L83.8741812,24.3868176 L80.4720621,26.981925 L77.3421605,24.4791155 L75.9670824,25.4397821 L75.8275759,25.2505715 L77.2258385,24.267215 L77.2258385,17.2725777 C77.2933932,14.3921162 74.4836769,15.107809 74.6355751,12.0515971 C74.70273,10.708279 76.0546237,9.69223374 76.7365665,9.35573123 C77.4668769,9 78.2571471,9 78.2571471,9 Z M215.378778,11 L217.968017,16.2526184 L212.852718,20.6456429 L212.852718,21.6834652 L215.399487,24.4666974 L218.497307,21.6289724 L218.62963,21.8162147 L213.024702,27 L209.799473,23.5968605 L208.770376,24.5650303 L208.62963,24.3736908 L209.6847,23.3846252 L209.6847,14.7772144 C209.6847,14.7772144 211.266252,13.8770582 212.446273,13.0608947 C213.62454,12.2394049 215.378778,11 215.378778,11 L215.378778,11 Z M128.122166,11 L132.304467,14.6011617 L133.463111,13.5442503 L133.62963,13.7301167 L132.501412,14.7674632 L132.501412,23.2178631 C132.501412,23.2178631 130.358044,24.3436592 128.861839,25.1804657 C127.367279,26.0168645 125.769929,27 125.769929,27 L121.837612,23.7171753 L120.797793,24.6126764 L120.62963,24.4264024 L121.722899,23.4823967 L121.722899,14.3957304 L121.73729,14.3957304 C121.73729,14.3957304 123.592436,13.5638152 125.156481,12.6882865 C126.556475,11.9052835 128.122166,11 128.122166,11 Z M203.277347,11 L205.924045,14.0507375 L207.324508,12.9576286 L207.469922,13.1557392 L206.071062,14.2484362 L206.071062,22.3421371 L207.519995,23.9937447 L208.464587,23.0991582 L208.62963,23.2816176 L204.739501,26.9748758 L201.842033,23.7264396 L202.520232,23.0299637 L202.520232,15.9391716 L200.458396,13.6055036 L199.700479,14.2385512 L199.726918,22.9204057 L200.758438,24.0332844 L197.951904,26.9209205 L195.327639,23.8850104 L196.070734,23.1234587 L196.070734,15.9935388 L194.093822,13.620331 L193.382375,14.203954 L193.382375,22.8512112 L194.557706,24.1020671 L191.697894,27 L188.910989,23.7610369 L189.779468,22.9455299 L189.779468,15.7958401 L187.990834,13.7142379 L186.78626,14.7822226 L186.62963,14.5944088 L190.510946,11.1235617 L193.186086,14.0507375 L196.841469,11.1087343 L199.492173,14.0754498 L203.277347,11 Z M71.3789013,11 L73.9676197,16.2526184 L68.8530141,20.6456429 L68.8523121,21.6834652 L71.39926,24.4666974 L74.4969468,21.6289724 L74.6296296,21.8162147 L69.0239573,27 L65.7985018,23.5968605 L64.7693327,24.5650303 L64.6296296,24.3736908 L65.6847737,23.3846252 L65.6847737,14.7772144 C65.6847737,14.7772144 67.2660858,13.8770582 68.4454884,13.0608947 C69.6245399,12.2394049 71.3789013,11 71.3789013,11 L71.3789013,11 Z M228.129321,10 C228.4125,10.5155236 229.170935,12.0485484 226.254111,15.4772449 L228.62963,17.4332932 L228.62963,22.4789999 C228.62963,22.4789999 225.869959,23.9423593 223.26023,25.8844746 C223.26023,25.8844746 221.803716,24.0263448 220.538898,24.913804 C219.684805,25.512539 220.07541,26.5253958 221.274937,26.9813168 C220.872944,27.1016831 219.127177,26.6697579 218.708102,24.8255612 C218.300415,23.027034 219.524615,21.8102125 221.374391,19.8959634 L219.190949,17.860961 L219.190949,13.9767306 L219.223241,13.9601772 C219.455905,13.8405606 220.899927,13.0923354 222.052731,12.3597203 C223.309957,11.5562466 224.596411,10.6873648 224.596411,10.6873648 C224.596411,10.6873648 225.534395,11.8952846 226.59461,11.7977531 C228.254588,11.6491337 228.17753,10.3154292 228.129321,10 Z M14.4671396,2.02886253 C15.0937039,2.08677326 16.0768806,2.41010817 16.8177143,3.09096141 C17.6045624,3.892462 17.784019,5.1089895 17.5083154,6.21452143 C17.2632881,7.19900384 16.9883514,7.71095079 16.0300992,8.39180403 C15.0614937,9.077081 13.8904244,9.01917027 13.8904244,9.01917027 L13.8904244,13.2868694 L15.8698153,14.9666827 L13.8900409,16.6416702 L13.8904244,22.4548619 C13.8904244,22.4548619 15.8736498,21.2624639 17.1037711,18.59294 L17.1134893,18.5659012 C17.1331533,18.5120812 17.1833379,18.3786905 17.2701903,18.1726851 C17.3794748,18.8873196 17.3169717,20.33549 16.5454617,22.1942636 C15.9641451,23.5937729 14.9069616,24.9410017 13.5809768,25.7083189 C11.2311691,27.0748513 9.4691967,27.2055526 7.57991753,26.7945472 C5.36815333,26.3171859 3.35885298,25.012988 1.98762052,22.7391875 C1.02399995,21.1414143 0.592613901,19.2786192 0.632109691,17.2742645 C0.709567453,13.3395521 3.5003476,9.94614412 6.72174689,8.68135768 C7.1140206,8.52692906 7.27008649,8.42558528 7.82647863,8.37209829 C7.56994772,8.55588443 7.27353757,8.79235324 6.91002293,9.04329974 C5.87239569,9.75793424 4.9835487,11.1819752 4.60431243,12.2778553 L10.8569177,9.35215697 L10.8569177,18.5205516 L5.81449409,21.1707719 C6.38929204,22.0056516 8.13477586,23.2708402 9.62794677,23.4493982 C12.1683313,23.7437778 13.658818,22.5807373 13.658818,22.5807373 L13.6584346,16.6416702 L11.6897804,14.9666827 L13.6595849,13.2916953 L13.6595849,9.01917027 C12.585913,8.88887113 11.2814016,8.51727727 10.518711,8.31941561 C9.39749075,8.0294598 5.65842821,6.92875377 5.07059282,6.83706178 C4.48352434,6.74536979 3.75879577,6.77432515 3.32050755,7.18492832 C2.88183587,7.59995522 2.61035025,8.3290674 2.79709248,8.98538901 C2.9025424,9.35698287 3.14641931,9.57455026 3.33086081,9.78688961 C3.33086081,9.78688961 3.11535952,9.76758603 2.72385271,9.52106327 C2.01791341,9.077081 1.48107744,8.20801789 1.41627366,7.13666938 C1.33344754,5.73193201 1.88485478,4.46674341 2.98958652,3.61738603 C3.94937254,2.97031405 5.03493157,2.55528715 6.29726301,2.74349702 C8.1386104,3.01857299 10.6145746,4.10962724 12.8198201,4.66460507 C13.6741562,4.88217247 14.3356148,4.95456088 14.9361042,4.58739077 C15.2160258,4.37505142 15.7079976,3.82972538 15.3057541,3.10543909 C14.8364061,2.25567955 13.9364389,2.27498313 13.1741318,2.12538041 C13.8302221,1.98060358 13.9740174,1.98060358 14.4671396,2.02886253 Z M176.466791,2.02886253 C177.093752,2.08677326 178.076949,2.41010817 178.817797,3.09096141 C179.605045,3.892462 179.783738,5.1089895 179.508413,6.21452143 C179.262613,7.19900384 178.988438,7.71095079 178.029016,8.39180403 C177.061541,9.077081 175.890064,9.01917027 175.890064,9.01917027 L175.890064,13.2868694 L177.870263,14.9666827 L175.890064,16.6416702 L175.890064,22.4548619 C175.890064,22.4548619 177.87333,21.2624639 179.10386,18.59294 L179.11362,18.5659012 C179.133339,18.5120812 179.183524,18.3786905 179.269516,18.1726851 C179.378802,18.8873196 179.317449,20.33549 178.545156,22.1942636 C177.963827,23.5937729 176.906239,24.9410017 175.58061,25.7083189 C173.231138,27.0748513 171.46913,27.2055526 169.580195,26.7945472 C167.367619,26.3171859 165.359045,25.012988 163.987784,22.7391875 C163.023761,21.1414143 162.591599,19.2786192 162.632246,17.2742645 C162.709322,13.3395521 165.499775,9.94614412 168.722007,8.68135768 C169.113522,8.52692906 169.269208,8.42558528 169.826762,8.37209829 C169.569842,8.55588443 169.273042,8.79235324 168.909904,9.04329974 C167.872639,9.75793424 166.983774,11.1819752 166.603763,12.2778553 L172.856112,9.35215697 L172.856112,18.5205516 L167.814353,21.1707719 C168.389546,22.0056516 170.134298,23.2708402 171.62865,23.4493982 C174.168319,23.7437778 175.658837,22.5807373 175.658837,22.5807373 L175.658837,16.6416702 L173.690526,14.9666827 L175.658837,13.2916953 L175.658837,9.01917027 C174.585526,8.88887113 173.281372,8.51727727 172.519049,8.31941561 C171.397039,8.0294598 167.657517,6.92875377 167.070436,6.83706178 C166.483356,6.74536979 165.758229,6.77432515 165.320315,7.18492832 C164.881251,7.59995522 164.610143,8.3290674 164.796506,8.98538901 C164.902341,9.35698287 165.14584,9.57455026 165.330669,9.78688961 C165.330669,9.78688961 165.114396,9.76758603 164.723265,9.52106327 C164.016927,9.077081 163.48008,8.20801789 163.415659,7.13666938 C163.333214,5.73193201 163.884249,4.46674341 164.989004,3.61738603 C165.949193,2.97031405 167.034391,2.55528715 168.297131,2.74349702 C170.138133,3.01857299 172.614148,4.10962724 174.819822,4.66460507 C175.674559,4.88217247 176.335647,4.95456088 176.935765,4.58739077 C177.215693,4.37505142 177.707675,3.82972538 177.305806,3.10543909 C176.836065,2.25567955 175.936463,2.27498313 175.174141,2.12538041 C175.830244,1.98060358 175.974043,1.98060358 176.466791,2.02886253 Z M125.453749,12.8594793 L125.453749,22.0484537 L128.776729,25.0284302 L128.776729,15.9075253 L125.453749,12.8594793 Z M111.92415,15.1218278 C111.096505,15.1218278 110.55057,15.8163783 110.55057,15.8163783 L110.55057,24.4945712 C110.55057,24.4945712 111.660314,24.788076 112.468919,24.125749 C113.322734,23.4220362 113.279859,22.4492306 113.273437,22.3537094 L113.272862,15.7930843 C113.272862,15.7930843 112.752184,15.1218278 111.92415,15.1218278 Z M223.971594,17.6933772 C222.388675,19.3154188 219.571306,21.661206 219.222076,23.092055 C219.222076,23.092055 220.475885,20.9784856 222.629339,21.4336326 C224.622061,21.8549835 225.359632,23.9393327 225.409774,24.0876773 L225.41163,24.095 L225.412545,18.9717364 L223.971594,17.6933772 Z M149.15863,20.145 L149.159077,21.9668043 L149.159891,21.9668043 L150.475729,23.2936825 L150.88263,22.955 L149.15863,20.145 Z M169.032612,11.4039663 L166.493709,12.5915385 C166.493709,12.5915385 165.846042,14.1120973 165.959163,16.3183352 C166.048126,18.0419838 166.967285,20.1038471 167.673238,20.9680843 L169.032612,20.2578735 L169.032612,11.4039663 Z M7.03234484,11.4039663 L4.49349415,12.5915385 C4.49272724,12.5915385 3.84622335,14.1120973 3.95934236,16.3183352 C4.0486872,18.0419838 4.96744362,20.1038471 5.67338292,20.9680843 L7.03234484,20.2578735 L7.03234484,11.4039663 Z M36.8526631,12.9330619 L36.8526631,20.3309774 L39.452965,18.1070139 L36.8526631,12.9330619 Z M212.852718,12.9330619 L212.852718,20.3309774 L215.453539,18.1070139 L212.852718,12.9330619 Z M68.8523121,12.9330619 L68.8523121,20.3309774 L71.453316,18.1070139 L68.8523121,12.9330619 Z M222.419043,12.3875865 L222.419043,16.4250807 L223.737003,17.5958457 C223.737003,17.5958457 226.600304,15.2589601 227.64002,13.0939157 C227.64002,13.0939157 226.353566,14.8730914 224.620705,14.3297017 C223.170645,13.8791991 222.419043,12.3875865 222.419043,12.3875865 Z M110.55057,12.8382359 L110.55057,15.4296973 C110.55057,15.4296973 111.092231,14.828323 111.919876,14.828323 C112.747521,14.828323 113.272862,15.3966974 113.272862,15.3966974 L113.272862,12.8428947 C113.272862,12.8428947 112.747521,13.4396102 111.919876,13.4396102 C111.092231,13.4396102 110.55057,12.8382359 110.55057,12.8382359 Z M111.436889,5.67997878 L110.55057,6.37879984 L110.55057,12.4515549 C110.55057,12.4515549 111.096505,13.1410583 111.92415,13.1410583 C112.752184,13.1410583 113.272862,12.4795077 113.272862,12.4795077 L113.272862,7.29231426 L111.436889,5.67997878 Z M184.387419,5 L186.62963,7.485773 L183.859979,10 L181.62963,7.52371167 L184.387419,5 Z" id="NYT"></path>
                </g>
            </g>
        </g>
    </g>
</svg>