<svg width="124" height="30" viewBox="0 0 124 30" fill="none" xmlns="http://www.w3.org/2000/svg">
<path fill-rule="evenodd" clip-rule="evenodd" d="M38.0964 4.91113C37.7511 4.91113 37.5 5.18457 37.5 5.48806V25.5847C37.5 25.8882 37.7511 26.1611 38.0964 26.1611H40.9832C41.2969 26.1611 41.5797 25.8882 41.5797 25.5847V18.4507H45.502C49.3305 18.4507 52.5 15.3842 52.5 11.6204C52.5 7.94718 49.3305 4.91113 45.4709 4.91113H38.0964ZM48.4518 11.5897C48.4518 13.3807 46.9769 14.747 45.2198 14.747H41.5797V8.64534H45.2198C46.9769 8.64534 48.4518 9.91997 48.4518 11.5897ZM55 5.48806C55 5.18457 55.2579 4.91113 55.5442 4.91113H58.2064C58.4926 4.91113 58.75 5.18457 58.75 5.48806V25.5847C58.75 25.8882 58.4926 26.1611 58.2064 26.1611H55.5442C55.2579 26.1611 55 25.8882 55 25.5847V5.48806ZM63.1052 4.91113C62.6275 4.91113 62.3727 5.30014 62.5639 5.68926L72.4081 25.8318C72.5038 26.0116 72.663 26.1611 72.95 26.1611H73.2686C73.555 26.1611 73.7142 26.0116 73.8099 25.8318L83.6861 5.68926C83.8774 5.30014 83.6226 4.91113 83.1448 4.91113H79.8949C79.6084 4.91113 79.417 5.09025 79.3535 5.23998L73.2365 18.11H73.0136L66.897 5.23998C66.833 5.09025 66.6416 4.91113 66.3552 4.91113H63.1052ZM106.25 16.1923C106.25 9.94265 101.243 4.91113 94.9845 4.91113C88.7255 4.91113 83.75 9.94265 83.75 16.1923C83.75 22.4421 88.7255 27.4111 94.9845 27.4111C101.243 27.4111 106.25 22.4421 106.25 16.1923ZM102.182 16.1923C102.182 20.1298 98.9275 23.3485 94.9845 23.3485C91.0415 23.3485 87.8178 20.1298 87.8178 16.1923C87.8178 12.255 91.0415 8.97387 94.9845 8.97387C98.9275 8.97387 102.182 12.255 102.182 16.1923ZM109.356 8.60094H114.153V25.578C114.153 25.8806 114.435 26.1527 114.748 26.1527H117.664C117.978 26.1527 118.26 25.8806 118.26 25.578V8.60094H123.057C123.402 8.60094 123.652 8.32836 123.652 8.02582V5.54446C123.652 5.24193 123.402 4.9698 123.057 4.9698H109.356C109.011 4.9698 108.761 5.24193 108.761 5.54446V8.02582C108.761 8.32836 109.011 8.60094 109.356 8.60094Z" fill="white"/>
<path fill-rule="evenodd" clip-rule="evenodd" d="M14.9683 29.9592H8.36531C8.03073 29.9592 7.72002 29.7857 7.5467 29.5024L0.136538 17.3766C-0.0881657 17.0084 -0.0312359 16.5351 0.275727 16.2299L1.16055 15.35C1.29962 15.2114 1.48898 15.1336 1.68655 15.1336H9.34337C9.63815 15.1336 9.87721 15.3708 9.87721 15.6634V18.3901C9.87721 18.6991 9.62488 18.9502 9.31358 18.9502H6.34828C5.91877 18.9502 5.65499 19.4158 5.8774 19.7797L9.57302 25.8249C9.69399 26.0221 9.90977 26.1427 10.1427 26.1427H11.0767C11.3914 26.1427 11.6464 25.8902 11.6464 25.5779V0.533084C11.6464 0.238828 11.8871 0 12.1841 0H19.1503C19.4876 0 19.7951 0.191182 19.9418 0.4931L27.3664 15.7434C27.5275 16.0744 27.4999 16.4649 27.2951 16.7701L25.9355 18.7945C25.8059 18.9869 25.5883 19.1029 25.3554 19.1029H17.7924C17.4965 19.1029 17.257 18.8647 17.257 18.5715V15.8229C17.257 15.5264 17.4987 15.286 17.7973 15.286H21.9882C22.3978 15.286 22.666 14.8613 22.4882 14.4953L17.491 4.23079C17.3679 3.97712 17.109 3.81599 16.8258 3.81599H16.3473C15.8747 3.81599 15.4917 4.19679 15.4917 4.66631V29.4404C15.4917 29.727 15.2571 29.9592 14.9683 29.9592" fill="white"/>
</svg>
