<?xml version="1.0" encoding="UTF-8"?>
<svg width="99px" height="24px" viewBox="0 0 99 24" version="1.1" xmlns="http://www.w3.org/2000/svg" xmlns:xlink="http://www.w3.org/1999/xlink">
    <!-- Generator: Sketch 59.1 (86144) - https://sketch.com -->
    <title>Logo</title>
    <desc>Created with Sketch.</desc>
    <g id="Symbols" stroke="none" stroke-width="1" fill="none" fill-rule="evenodd">
        <g id="Nav/Desktop/Dark" transform="translate(-24.000000, -23.000000)" fill="currentColor">
            <g id="Logo/Full" transform="translate(24.000000, 23.000000)">
                <g id="Logo/Type" transform="translate(30.000012, 3.928957)">
                    <path d="M45.9876093,1.11910481e-13 C50.9944192,1.11910481e-13 55,4.02521044 55,9.02493653 C55,14.0247574 50.9944192,18 45.9876093,18 C40.9804196,18 37,14.0247574 37,9.02493653 C37,4.02521044 40.9804196,1.11910481e-13 45.9876093,1.11910481e-13 Z M6.37670488,2.13162821e-14 C9.46441861,2.13162821e-14 12,2.42883459 12,5.36738365 C12,8.37842011 9.46441861,10.8316628 6.40155512,10.8316628 L3.26376007,10.8316628 L3.26376007,16.5388254 C3.26376007,16.7816167 3.03753719,17 2.78655929,17 L0.477105566,17 C0.200896576,17 -1.05693232e-13,16.7816167 -1.05693232e-13,16.5388254 L-1.05693232e-13,0.461543046 C-1.05693232e-13,0.218751693 0.200896576,2.13162821e-14 0.477105566,2.13162821e-14 L6.37670488,2.13162821e-14 Z M16.5651129,0 C16.7940649,0 17,0.218751693 17,0.461543046 L17,16.5388254 C17,16.7816167 16.7940649,17 16.5651129,17 L14.4353214,17 C14.2062826,17 14,16.7816167 14,16.5388254 L14,0.461543046 C14,0.218751693 14.2062826,0 14.4353214,0 L16.5651129,0 Z M23.0841801,0 C23.3132688,0 23.4663812,0.143297455 23.517612,0.263075238 L28.4108294,10.5590609 L28.5891706,10.5590609 L33.4827747,0.263075238 C33.5336188,0.143297455 33.6867312,0 33.9159165,0 L36.515831,0 C36.898032,0 37.1018919,0.311204295 36.9488762,0.622499399 L29.0479278,16.7365615 C28.9713716,16.8804038 28.8439713,17 28.6148826,17 L28.3599853,17 C28.1304133,17 28.003013,16.8804038 27.9264568,16.7365615 L20.0511238,0.622499399 C19.8981081,0.311204295 20.101968,0 20.484169,0 L23.0841801,0 Z M68.445199,0.0469369044 C68.721244,0.0469369044 68.9214765,0.264635262 68.9214765,0.506665152 L68.9214765,2.49175098 C68.9214765,2.73378087 68.721244,2.95184649 68.445199,2.95184649 L64.6076785,2.95184649 L64.6076785,16.5335246 C64.6076785,16.7755545 64.3822385,16.9932528 64.1310205,16.9932528 L61.7985256,16.9932528 C61.547688,16.9932528 61.3222481,16.7755545 61.3222481,16.5335246 L61.3222481,2.95184649 L57.4847276,2.95184649 C57.2091582,2.95184649 57.00845,2.73378087 57.00845,2.49175098 L57.00845,0.506665152 C57.00845,0.264635262 57.2091582,0.0469369044 57.4847276,0.0469369044 L68.445199,0.0469369044 Z M45.9876093,3.250187 C42.8332393,3.250187 40.2542555,5.87506453 40.2542555,9.02493653 C40.2542555,12.1749033 42.8332393,14.7499078 45.9876093,14.7499078 C49.1419792,14.7499078 51.7457445,12.1749033 51.7457445,9.02493653 C51.7457445,5.87506453 49.1419792,3.250187 45.9876093,3.250187 Z M6.17580831,2.98736523 L3.26376007,2.98736523 L3.26376007,7.86870564 L6.17580831,7.86870564 C7.58151307,7.86870564 8.76147102,6.77568402 8.76147102,5.34288346 C8.76147102,4.00707049 7.58151307,2.98736523 6.17580831,2.98736523 Z" id="Logotype"></path>
                </g>
                <g id="Logo/Mark" transform="translate(-0.000000, -0.000000)">
                    <path d="M11.9746605,23.9673996 L6.69224818,23.9673996 C6.42458151,23.9673996 6.17602011,23.828532 6.03736221,23.6019384 L0.109230632,13.9013178 C-0.0705325264,13.6067269 -0.0249886667,13.2280493 0.220581509,12.9839297 L0.928441158,12.2800146 C1.03969554,12.169112 1.19118677,12.106861 1.3492394,12.106861 L7.47469554,12.106861 C7.71052011,12.106861 7.90176572,12.2966787 7.90176572,12.5307424 L7.90176572,14.7121131 C7.90176572,14.9592974 7.69990607,15.1601287 7.45086221,15.1601287 L5.07862537,15.1601287 C4.73502011,15.1601287 4.52399379,15.532677 4.70192361,15.8237243 L7.65841484,20.6599563 C7.75519554,20.8176908 7.92781835,20.9141319 8.11414291,20.9141319 L8.86137098,20.9141319 C9.1131166,20.9141319 9.31709905,20.7121514 9.31709905,20.4622855 L9.31709905,0.426467208 C9.31709905,0.191062672 9.50969554,0 9.74725695,0 L15.3202043,0 C15.5900903,0 15.8360464,0.152945909 15.9534762,0.394479773 L21.8930903,12.5947173 C22.0220026,12.8595234 21.9999061,13.1719277 21.836064,13.4160473 L20.7484148,15.0356267 C20.6446868,15.1895303 20.4706166,15.2823322 20.284292,15.2823322 L14.2339061,15.2823322 C13.9972131,15.2823322 13.8055815,15.0917484 13.8055815,14.8572058 L13.8055815,12.6583091 C13.8055815,12.4210849 13.9989499,12.2287772 14.2378622,12.2287772 L17.5905464,12.2287772 C17.9182306,12.2287772 18.1328271,11.8890783 17.9905991,11.5962113 L13.9927745,3.38463454 C13.8943534,3.18169629 13.6871868,3.05278884 13.4606254,3.05278884 L13.0778447,3.05278884 C12.699792,3.05278884 12.3933359,3.35743564 12.3933359,3.73304857 L12.3933359,23.5523291 C12.3933359,23.7816044 12.2056605,23.9673996 11.9746605,23.9673996" id="Logomark"></path>
                </g>
            </g>
        </g>
    </g>
</svg>
